<?xml version="1.0" encoding="UTF-8"?>
<svg id="Ebene_1" data-name="Ebene 1" xmlns="http://www.w3.org/2000/svg" version="1.1" viewBox="0 0 80 80">
  <defs>
    <style>
      .cls-1 {
        fill: #fff;
        stroke-width: 0px;
      }
    </style>
  </defs>
  <g id="Layer_2" data-name="Layer 2">
    <g id="Layer_1-2" data-name="Layer 1-2">
      <path class="cls-1" d="M61.1,45.7h-7v-7.1c0-.8-.6-1.4-1.4-1.4h-11.2v-5.7h5.6c.8,0,1.4-.6,1.4-1.4v-11.3c0-.8-.6-1.4-1.4-1.4h-14c-.8,0-1.4.6-1.4,1.4v11.3c0,.8.6,1.4,1.4,1.4h5.6v5.7h-11.2c-.8,0-1.4.6-1.4,1.4v7.1h-7c-.8,0-1.4.6-1.4,1.4v14.1c0,.8.6,1.4,1.4,1.4h16.8c.8,0,1.4-.6,1.4-1.4v-14.1c0-.8-.6-1.4-1.4-1.4h-7v-5.7h22.5v5.7h-7c-.8,0-1.4.6-1.4,1.4v14.1c0,.8.6,1.4,1.4,1.4h16.8c.8,0,1.4-.6,1.4-1.4v-14.1c0-.8-.6-1.4-1.4-1.4ZM34.4,20.2h11.2v8.5h-11.2v-8.5ZM34.4,59.8h-14v-11.3h14v11.3ZM59.7,59.8h-14v-11.3h14v11.3Z"/>
    </g>
  </g>
</svg>