<?xml version="1.0" encoding="UTF-8"?>
<svg id="Ebene_1" data-name="Ebene 1" xmlns="http://www.w3.org/2000/svg" version="1.1" viewBox="0 0 80 80">
  <defs>
    <style>
      .cls-1 {
        fill: #fff;
        stroke-width: 0px;
      }
    </style>
  </defs>
  <path class="cls-1" d="M41.6,18.2c5.3,0,10.6,0,15.9,0,4.2,0,7.3,3.2,7.3,7.3,0,5.9,0,11.7,0,17.6,0,1.3-.7,2.1-1.8,2.1-1.2,0-1.9-.7-1.9-2,0-3.4,0-6.8,0-10.2,0-2.3,0-4.6,0-6.9,0-2.8-1.4-4.2-4.2-4.2-10.2,0-20.3,0-30.5,0-2.7,0-4.2,1.4-4.2,4.2,0,10.2,0,20.3,0,30.5,0,2.7,1.4,4.2,4.2,4.2,5.9,0,11.8,0,17.7,0,1.3,0,2,.7,2.1,1.7,0,1.2-.7,2-2,2-3,0-6,0-9,0-3.2,0-6.4,0-9.6,0-3.9,0-7.1-3.2-7.1-7.1,0-10.7,0-21.4,0-32.1,0-4,3.2-7.2,7.2-7.2,5.3,0,10.7,0,16,0Z"/>
  <path class="cls-1" d="M46.2,53.9c0-4.4,3.2-7.8,7.6-8.2,4-.4,8,2.7,8.7,6.8.3,1.8,0,3.6-.8,5.2-.3.5-.2.8.2,1.2.7.7,1.4,1.4,2.1,2.1.9,1,1,2.2.2,2.9-.8.8-2,.7-2.9-.3-.7-.7-1.4-1.3-2-2-.4-.5-.8-.6-1.5-.3-4.7,2.2-10.2-.6-11.4-5.7-.1-.6-.1-1.2-.2-1.8ZM54.4,49.5c-2.5,0-4.4,2-4.4,4.4,0,2.4,2,4.4,4.4,4.4,2.5,0,4.4-1.9,4.5-4.3,0-2.4-2-4.4-4.4-4.4Z"/>
  <path class="cls-1" d="M46.1,32.2c-2.5,0-5,0-7.5,0-1.2,0-2-.6-2.2-1.5-.2-1.3.6-2.3,1.9-2.4.9,0,1.8,0,2.7,0,4.1,0,8.2,0,12.3,0,1.3,0,2.1.6,2.2,1.6.2,1.3-.7,2.2-2.1,2.2-2.5,0-5,0-7.5,0Z"/>
  <path class="cls-1" d="M46,43c-2.5,0-4.9,0-7.4,0-1.2,0-2-.6-2.2-1.5-.2-1.3.6-2.3,2-2.3,1.1,0,2.3,0,3.4,0,3.8,0,7.7,0,11.5,0,.8,0,1.5.2,2,.8.4.6.5,1.3.1,2-.4.8-1.1,1.1-1.9,1.1-2.5,0-5,0-7.6,0Z"/>
  <path class="cls-1" d="M39.6,54.4c-.4,0-.9,0-1.3,0-1.1,0-1.8-.8-1.8-1.8,0-1.1.7-1.9,1.8-1.9.9,0,1.7,0,2.6,0,1.1,0,1.8.8,1.8,1.8,0,1.1-.7,1.8-1.8,1.9-.4,0-.8,0-1.3,0Z"/>
  <path class="cls-1" d="M30.2,28.3c.4,0,.7,0,1.1,0,1,.2,1.6.9,1.7,1.8,0,1-.6,1.8-1.6,1.9-.8,0-1.6,0-2.3,0-1-.1-1.6-.9-1.6-1.9,0-1,.6-1.7,1.6-1.8.4,0,.8,0,1.2,0,0,0,0,0,0,0Z"/>
  <path class="cls-1" d="M30.2,39.1c.4,0,.7,0,1.1,0,1,.2,1.6.9,1.6,1.8,0,1-.6,1.8-1.6,1.9-.8,0-1.6,0-2.3,0-1-.1-1.6-.9-1.6-1.9,0-1,.6-1.7,1.7-1.8.4,0,.8,0,1.2,0,0,0,0,0,0,0Z"/>
  <path class="cls-1" d="M30.2,50.7c.4,0,.7,0,1.1,0,1,0,1.6.8,1.6,1.8,0,1-.6,1.8-1.6,1.9-.7,0-1.4,0-2.2,0-1.1,0-1.8-.9-1.7-1.9,0-1,.7-1.7,1.7-1.8.4,0,.7,0,1.1,0,0,0,0,0,0,0Z"/>
</svg>